<?xml version="1.0" standalone="no"?>
<!DOCTYPE svg PUBLIC "-//W3C//DTD SVG 20010904//EN"
 "http://www.w3.org/TR/2001/REC-SVG-20010904/DTD/svg10.dtd">
<svg version="1.0" xmlns="http://www.w3.org/2000/svg"
 width="1000.000000pt" height="1000.000000pt" viewBox="0 0 1000.000000 1000.000000"
 preserveAspectRatio="xMidYMid meet">
<metadata>
Created by potrace 1.11, written by Peter Selinger 2001-2013
</metadata>
<g transform="translate(0.000000,1000.000000) scale(0.100000,-0.100000)"
fill="#000000" stroke="none">
<path d="M265 9270 l0 -100 417 0 418 0 0 -2453 0 -2454 -397 -1 c-219 0 -407
-1 -418 -1 -19 -1 -20 -8 -20 -101 l0 -100 2212 0 2213 0 0 -1248 0 -1249
-397 -1 c-219 0 -407 -1 -419 -1 -19 -1 -20 -7 -20 -101 l0 -100 76 0 c90 0
2290 0 2438 0 l102 0 0 100 0 100 -32 1 c-18 0 -207 1 -419 1 l-386 1 0 1251
c0 688 2 1256 4 1261 2 7 110 10 326 9 376 -2 450 -6 630 -39 158 -30 277 -73
382 -140 101 -65 180 -164 257 -320 46 -94 73 -165 97 -255 38 -141 39 -174
27 -800 -5 -288 0 -338 49 -485 51 -151 175 -361 273 -460 126 -129 303 -219
504 -255 34 -7 70 -13 78 -15 8 -2 56 -7 105 -11 239 -21 493 7 748 83 l87 26
0 98 c0 107 2 104 -60 84 -10 -3 -29 -8 -42 -10 -13 -3 -47 -10 -76 -16 -186
-38 -358 0 -461 102 -99 99 -137 262 -146 629 -5 172 -14 354 -20 405 -13 106
-19 140 -37 225 -60 281 -168 500 -328 660 -174 174 -415 321 -709 432 -104
39 -396 120 -404 112 -2 -3 -10 2 -16 10 -10 12 -5 16 36 22 26 5 50 9 53 9 5
1 62 13 100 21 345 68 693 180 897 290 353 190 552 454 601 794 8 59 9 262 0
325 -44 335 -274 659 -603 848 -141 81 -368 153 -545 172 -30 4 -61 8 -68 10
-7 3 -47 7 -90 11 -42 3 -88 8 -102 12 -14 3 -768 7 -1675 9 l-1650 4 0 -101
-1 -100 66 -1 c36 0 224 0 418 0 l353 1 -4 -343 -3 -342 -41 -155 c-103 -384
-185 -622 -264 -770 -156 -288 -422 -517 -648 -555 -19 -3 -37 -7 -40 -9 -3
-2 -33 -7 -66 -11 -33 -4 -71 -9 -85 -12 -14 -2 -356 -6 -761 -7 l-737 -3 0
2453 0 2454 441 2 441 3 1 85 c0 47 -1 91 -3 98 -3 9 -278 12 -1331 12 l-1327
0 1 -100z m6585 -2814 c271 -37 353 -67 468 -172 145 -131 229 -331 249 -599
13 -157 5 -532 -12 -595 -2 -8 -7 -37 -9 -64 -15 -128 -78 -323 -133 -406 -95
-144 -199 -231 -328 -275 -60 -20 -56 -19 -186 -39 -169 -26 -201 -28 -745
-33 l-521 -5 0 1093 c0 602 2 1098 4 1102 5 9 1144 2 1213 -7z"/>
</g>
</svg>
