<svg xmlns="http://www.w3.org/2000/svg" fill="#DF8B0D" viewBox="0 0 3333 2698" shape-rendering="geometricPrecision" text-rendering="geometricPrecision" image-rendering="optimizeQuality" fill-rule="evenodd" clip-rule="evenodd"><defs></defs><g id="Layer_x0020_1"><g id="_368453288"><path class="fil0" d="M1749 10h500c50 0 91 41 91 91v402h-682V101c0-50 41-91 91-91zm591 740v1226h-682V750h682zm0 1472v374c0 50-41 91-91 91h-500c-50 0-91-41-91-91v-374h682zM2742 10h500c50 0 91 41 91 91v402h-682V101c0-50 41-91 91-91zm591 740v1226h-682V750h682zm0 1472v374c0 50-41 91-91 91h-500c-50 0-91-41-91-91v-374h682zM975 5l470 171c47 17 72 70 55 117l-138 378-641-233L859 60c17-47 70-72 117-55zm302 897L858 2054l-641-233L636 669l641 233zM774 2285l-128 352c-17 47-70 72-117 55L59 2521c-47-17-72-70-55-117l128-352 641 233z"/></g></g></svg>